<svg width="28" height="29" viewBox="0 0 28 29" fill="none" xmlns="http://www.w3.org/2000/svg">
<g clip-path="url(#clip0_4357_4734)">
<path d="M8.50131 5.35999H18.0977C21.7534 5.35999 24.7237 8.33029 24.7237 11.986V21.5824C24.7237 23.3398 24.0256 25.0251 22.783 26.2677C21.5404 27.5104 19.855 28.2085 18.0977 28.2085H8.50131C4.84555 28.2085 1.87524 25.2382 1.87524 21.5824V11.986C1.87524 10.2287 2.57335 8.54334 3.81597 7.30071C5.0586 6.05809 6.74396 5.35999 8.50131 5.35999ZM8.27282 7.64483C7.18206 7.64483 6.13597 8.07814 5.36468 8.84942C4.5934 9.62071 4.16009 10.6668 4.16009 11.7576V21.8109C4.16009 24.0843 5.9994 25.9236 8.27282 25.9236H18.3262C19.4169 25.9236 20.463 25.4903 21.2343 24.719C22.0056 23.9477 22.4389 22.9017 22.4389 21.8109V11.7576C22.4389 9.48414 20.5996 7.64483 18.3262 7.64483H8.27282ZM19.2972 9.35847C19.676 9.35847 20.0392 9.50892 20.307 9.77673C20.5748 10.0445 20.7252 10.4078 20.7252 10.7865C20.7252 11.1652 20.5748 11.5285 20.307 11.7963C20.0392 12.0641 19.676 12.2145 19.2972 12.2145C18.9185 12.2145 18.5553 12.0641 18.2874 11.7963C18.0196 11.5285 17.8692 11.1652 17.8692 10.7865C17.8692 10.4078 18.0196 10.0445 18.2874 9.77673C18.5553 9.50892 18.9185 9.35847 19.2972 9.35847ZM13.2995 11.0721C14.8144 11.0721 16.2673 11.6739 17.3386 12.7451C18.4098 13.8164 19.0116 15.2693 19.0116 16.7842C19.0116 18.2992 18.4098 19.7521 17.3386 20.8233C16.2673 21.8945 14.8144 22.4963 13.2995 22.4963C11.7845 22.4963 10.3316 21.8945 9.26041 20.8233C8.18918 19.7521 7.58737 18.2992 7.58737 16.7842C7.58737 15.2693 8.18918 13.8164 9.26041 12.7451C10.3316 11.6739 11.7845 11.0721 13.2995 11.0721ZM13.2995 13.357C12.3905 13.357 11.5188 13.718 10.876 14.3608C10.2333 15.0035 9.87221 15.8753 9.87221 16.7842C9.87221 17.6932 10.2333 18.5649 10.876 19.2077C11.5188 19.8504 12.3905 20.2115 13.2995 20.2115C14.2085 20.2115 15.0802 19.8504 15.7229 19.2077C16.3657 18.5649 16.7268 17.6932 16.7268 16.7842C16.7268 15.8753 16.3657 15.0035 15.7229 14.3608C15.0802 13.718 14.2085 13.357 13.2995 13.357Z" fill="white"/>
</g>
<defs>
<clipPath id="clip0_4357_4734">
<rect width="27.4182" height="27.4182" fill="white" transform="translate(0.0473633 0.790283)"/>
</clipPath>
</defs>
</svg>
