<svg width="29" height="29" viewBox="0 0 29 29" fill="none" xmlns="http://www.w3.org/2000/svg">
<path d="M4.94158 24.278C4.2923 24.278 3.73667 24.0471 3.2747 23.5851C2.81273 23.1231 2.58135 22.5671 2.58057 21.917V7.75096C2.58057 7.10169 2.81195 6.54606 3.2747 6.08409C3.73746 5.62212 4.29309 5.39074 4.94158 5.38995H23.8297C24.4789 5.38995 25.035 5.62133 25.4977 6.08409C25.9605 6.54685 26.1915 7.10247 26.1907 7.75096V21.917C26.1907 22.5663 25.9597 23.1223 25.4977 23.5851C25.0357 24.0478 24.4797 24.2788 23.8297 24.278H4.94158ZM23.8297 10.112L15.0054 15.6308C14.907 15.6899 14.8039 15.7343 14.6961 15.7642C14.5883 15.7941 14.4848 15.8087 14.3856 15.8079C14.2865 15.8071 14.1834 15.7926 14.0763 15.7642C13.9693 15.7359 13.8658 15.6914 13.7659 15.6308L4.94158 10.112V21.917H23.8297V10.112ZM14.3856 13.6535L23.8297 7.75096H4.94158L14.3856 13.6535ZM4.94158 10.4071V8.66586V8.69537V8.6812V10.4071Z" fill="#FCFBFA"/>
</svg>
