<svg width="20" height="20" viewBox="0 0 20 20" fill="none" xmlns="http://www.w3.org/2000/svg">
<path d="M13.6332 11.6667C13.6998 11.1167 13.7498 10.5667 13.7498 9.99999C13.7498 9.43332 13.6998 8.88332 13.6332 8.33332H16.4498C16.5832 8.86666 16.6665 9.42499 16.6665 9.99999C16.6665 10.575 16.5832 11.1333 16.4498 11.6667M12.1582 16.3C12.6582 15.375 13.0415 14.375 13.3082 13.3333H15.7665C14.9591 14.7236 13.6783 15.7767 12.1582 16.3ZM11.9498 11.6667H8.04984C7.9665 11.1167 7.9165 10.5667 7.9165 9.99999C7.9165 9.43332 7.9665 8.87499 8.04984 8.33332H11.9498C12.0248 8.87499 12.0832 9.43332 12.0832 9.99999C12.0832 10.5667 12.0248 11.1167 11.9498 11.6667ZM9.99984 16.6333C9.30817 15.6333 8.74984 14.525 8.40817 13.3333H11.5915C11.2498 14.525 10.6915 15.6333 9.99984 16.6333ZM6.6665 6.66666H4.23317C5.03204 5.27252 6.31205 4.21769 7.83317 3.69999C7.33317 4.62499 6.95817 5.62499 6.6665 6.66666ZM4.23317 13.3333H6.6665C6.95817 14.375 7.33317 15.375 7.83317 16.3C6.31506 15.7769 5.03674 14.7235 4.23317 13.3333ZM3.54984 11.6667C3.4165 11.1333 3.33317 10.575 3.33317 9.99999C3.33317 9.42499 3.4165 8.86666 3.54984 8.33332H6.3665C6.29984 8.88332 6.24984 9.43332 6.24984 9.99999C6.24984 10.5667 6.29984 11.1167 6.3665 11.6667M9.99984 3.35832C10.6915 4.35832 11.2498 5.47499 11.5915 6.66666H8.40817C8.74984 5.47499 9.30817 4.35832 9.99984 3.35832ZM15.7665 6.66666H13.3082C13.047 5.63466 12.6608 4.63841 12.1582 3.69999C13.6915 4.22499 14.9665 5.28332 15.7665 6.66666ZM9.99984 1.66666C5.3915 1.66666 1.6665 5.41666 1.6665 9.99999C1.6665 12.2101 2.54448 14.3297 4.10728 15.8925C4.8811 16.6664 5.79976 17.2802 6.81081 17.699C7.82185 18.1178 8.90549 18.3333 9.99984 18.3333C12.21 18.3333 14.3296 17.4553 15.8924 15.8925C17.4552 14.3297 18.3332 12.2101 18.3332 9.99999C18.3332 8.90564 18.1176 7.82201 17.6988 6.81096C17.28 5.79991 16.6662 4.88125 15.8924 4.10743C15.1186 3.33361 14.1999 2.71978 13.1889 2.30099C12.1778 1.8822 11.0942 1.66666 9.99984 1.66666Z" fill="white"/>
</svg>
