<svg width="34" height="34" viewBox="0 0 34 34" fill="none" xmlns="http://www.w3.org/2000/svg">
<path d="M1.13365 31.9137C1.14427 32.9232 1.97121 33.7329 2.98067 33.7223L19.4307 33.5491C20.4401 33.5385 21.2498 32.7116 21.2392 31.7021C21.2286 30.6926 20.4016 29.8829 19.3922 29.8936L4.76996 30.0475L4.61605 15.4253C4.60542 14.4158 3.77848 13.6061 2.76903 13.6167C1.75957 13.6273 0.949865 14.4543 0.96049 15.4637L1.13365 31.9137ZM33.426 2.6292C33.4153 1.61974 32.5884 0.810034 31.579 0.82066L15.129 0.993818C14.1195 1.00444 13.3098 1.83138 13.3204 2.84083C13.331 3.85029 14.158 4.66 15.1674 4.64937L29.7897 4.49545L29.9436 19.1177C29.9542 20.1271 30.7811 20.9368 31.7906 20.9262C32.8 20.9156 33.6098 20.0886 33.5991 19.0792L33.426 2.6292ZM4.26746 33.1733L32.9042 3.92727L30.2922 1.36961L1.65539 30.6157L4.26746 33.1733Z" fill="white"/>
</svg>
